<!DOCTYPE svg PUBLIC "-//W3C//DTD SVG 1.1//EN" "http://www.w3.org/Graphics/SVG/1.1/DTD/svg11.dtd">
<!-- Uploaded to: SVG Repo, www.svgrepo.com, Transformed by: SVG Repo Mixer Tools -->
<svg fill="#b75252" height="64px" width="64px" version="1.1" id="Capa_1" xmlns="http://www.w3.org/2000/svg" xmlns:xlink="http://www.w3.org/1999/xlink" viewBox="-209.71 -209.71 875.32 875.32" xml:space="preserve" stroke="#b75252" stroke-width="0.00455896" transform="rotate(0)">
<g id="SVGRepo_bgCarrier" stroke-width="0" transform="translate(0,0), scale(1)">
<path transform="translate(-209.71, -209.71), scale(27.35375)" d="M16,25.605967834153596C17.89158041982182,25.15653341501169,19.825065119889963,26.32879322114744,21.72496179085882,25.91592469315799C24.047316323831417,25.41125140636863,26.978809148025757,25.08085402608488,28.0881282145355,22.979084078660783C29.20721242788719,20.858812608289682,27.69467290868296,18.281690566444762,26.958609906189583,16C26.388078872484506,14.231434981707876,25.262047064626845,12.797656014348401,24.292267803105087,11.212456951684814C23.348527448700235,9.669821029719591,22.650954835036465,8.009347491304403,21.320697768207864,6.784281133745656C19.77083933789672,5.3569784948056975,18.106865213586843,3.556592277750322,16,3.575904162929339C13.89206984285994,3.5952258095622383,12.68063816646087,6.069222282246279,10.735321007230706,6.8813084989830315C8.397042128529142,7.857439326426959,5.402197583366528,7.103101583899655,3.5110521063750273,8.789502571720405C1.5342990393173588,10.5522428608847,0.2620773616344687,13.363037784853047,0.5095370372428611,15.999999999999996C0.7553998887761759,18.61994625187995,3.4278243869365763,20.22078257643433,4.794803521686035,22.469323203077202C6.124188406173173,24.65602513965221,5.990304105430211,28.379071435641396,8.454659692614387,29.068912772789236C11.165759653693268,29.82782468956707,13.26093503926369,26.25676230036848,16,25.605967834153596" fill="#ff8a8a" strokewidth="0"/>
</g>
<g id="SVGRepo_tracerCarrier" stroke-linecap="round" stroke-linejoin="round" stroke="#CCCCCC" stroke-width="3.6471679999999997"/>
<g id="SVGRepo_iconCarrier"> <g> <path d="M432.458,330.806c8.794,0,15.926-7.132,15.926-15.926c0-8.794-7.132-15.926-15.926-15.926H331.599V155.62h100.859 c8.794,0,15.926-7.132,15.926-15.926c0-8.794-7.132-15.926-15.926-15.926H331.599V22.909c0-8.796-7.132-15.926-15.926-15.926 c-8.796,0-15.926,7.13-15.926,15.926v100.859H156.414V22.902c0-8.794-7.132-15.926-15.926-15.926 c-8.796,0-15.926,7.132-15.926,15.926v100.867H23.695c-8.794,0-15.926,7.132-15.926,15.926c0,8.794,7.132,15.926,15.926,15.926 h100.867v143.333H23.695c-8.794,0-15.926,7.132-15.926,15.926c0,8.794,7.132,15.926,15.926,15.926h100.867v100.859 c0,8.796,7.13,15.926,15.926,15.926c8.794,0,15.926-7.13,15.926-15.926V330.806h143.333v100.867c0,8.794,7.13,15.926,15.926,15.926 c8.794,0,15.926-7.132,15.926-15.926V330.806H432.458z M156.414,298.954V155.62h143.333v143.333H156.414z"/> <path d="M27.652,106.497l25.235-25.241l25.235,25.241c3.11,3.11,7.184,4.666,11.26,4.666c4.075,0,8.149-1.556,11.26-4.666 c6.222-6.213,6.222-16.299,0-22.519L75.408,58.735l25.233-25.243c6.222-6.221,6.222-16.306,0-22.519 c-6.221-6.221-16.299-6.221-22.519,0L52.887,36.214L27.652,10.973c-6.221-6.221-16.299-6.221-22.519,0 c-6.222,6.213-6.222,16.299,0,22.519l25.233,25.243L5.133,83.977c-6.222,6.221-6.222,16.307,0,22.519 c3.11,3.11,7.184,4.666,11.26,4.666C20.468,111.163,24.542,109.607,27.652,106.497z"/> <path d="M250.596,227.287l25.235-25.243c6.221-6.221,6.221-16.307,0-22.519c-6.222-6.222-16.3-6.222-22.521,0l-25.235,25.241 l-25.235-25.241c-6.221-6.222-16.299-6.222-22.519,0c-6.221,6.213-6.221,16.299,0,22.519l25.235,25.243l-25.235,25.243 c-6.221,6.221-6.221,16.307,0,22.519c3.11,3.11,7.186,4.666,11.26,4.666c4.075,0,8.149-1.556,11.26-4.666l25.235-25.241 l25.235,25.241c3.11,3.11,7.186,4.666,11.26,4.666c4.076,0,8.149-1.556,11.261-4.666c6.221-6.213,6.221-16.299,0-22.519 L250.596,227.287z"/> <path d="M228.072,117.47c32.389,0,58.735-26.346,58.735-58.735C286.807,26.346,260.461,0,228.072,0 c-32.389,0-58.735,26.346-58.735,58.735C169.337,91.123,195.684,117.47,228.072,117.47z M228.072,31.852 c14.822,0,26.883,12.061,26.883,26.883c0,14.822-12.061,26.883-26.883,26.883c-14.822,0-26.883-12.061-26.883-26.883 C201.189,43.913,213.25,31.852,228.072,31.852z"/> <path d="M396.695,338.426c-32.389,0-58.735,26.346-58.735,58.735s26.346,58.735,58.735,58.735 c32.388,0,58.735-26.346,58.735-58.735S429.083,338.426,396.695,338.426z M396.695,424.044c-14.822,0-26.883-12.061-26.883-26.883 s12.061-26.883,26.883-26.883c14.822,0,26.883,12.061,26.883,26.883S411.517,424.044,396.695,424.044z"/> </g> </g>
</svg>